<svg width="20" height="21" viewBox="0 0 20 21" fill="none" xmlns="http://www.w3.org/2000/svg">
<path d="M10 0.8125C15.3516 0.8125 19.6875 5.14844 19.6875 10.5C19.6875 15.8516 15.3516 20.1875 10 20.1875C4.64844 20.1875 0.3125 15.8516 0.3125 10.5C0.3125 5.14844 4.64844 0.8125 10 0.8125ZM10 18.3125C14.2969 18.3125 17.8125 14.8359 17.8125 10.5C17.8125 6.20312 14.2969 2.6875 10 2.6875C5.66406 2.6875 2.1875 6.20312 2.1875 10.5C2.1875 14.8359 5.66406 18.3125 10 18.3125ZM8.75 5.96875C8.75 5.73438 8.94531 5.5 9.21875 5.5H10.7812C11.0156 5.5 11.25 5.73438 11.25 5.96875V10.5H13.8672C14.2578 10.5 14.4922 11.0078 14.1797 11.3203L10.3125 15.1875C10.1172 15.3828 9.84375 15.3828 9.64844 15.1875L5.78125 11.3203C5.50781 11.0078 5.70312 10.5 6.13281 10.5H8.75V5.96875Z" fill="white"/>
</svg>
