<svg width="22" height="15" viewBox="0 0 22 15" fill="none" xmlns="http://www.w3.org/2000/svg">
<path d="M20.4922 4.375C20.8047 4.375 21.0391 4.6875 20.9609 4.96094L20.7266 5.89844C20.6875 6.13281 20.4922 6.25 20.2969 6.25H19.4766C20.0234 6.71875 20.375 7.38281 20.375 8.125V10C20.375 10.6641 20.1016 11.2109 19.75 11.6406V13.75C19.75 14.4531 19.1641 15 18.5 15H17.25C16.5469 15 16 14.4531 16 13.75V12.5H6V13.75C6 14.4531 5.41406 15 4.75 15H3.5C2.79688 15 2.25 14.4531 2.25 13.75V11.6406C1.85938 11.2109 1.625 10.6641 1.625 10V8.125C1.625 7.38281 1.9375 6.71875 2.48438 6.25H1.70312C1.46875 6.25 1.27344 6.13281 1.23438 5.89844L1 4.96094C0.921875 4.6875 1.15625 4.375 1.46875 4.375H3.77344L4.4375 2.77344C5.10156 1.09375 6.70312 0 8.5 0H13.4609C15.2578 0 16.8594 1.09375 17.5234 2.77344L18.1875 4.375H20.4922ZM6.74219 3.71094L6 5.625H16L15.2188 3.71094C14.9062 2.96875 14.2422 2.5 13.4609 2.5H8.5C7.71875 2.5 7.05469 2.96875 6.74219 3.71094ZM4.75 10C5.49219 10 6.625 10.1172 6.625 9.375C6.625 8.63281 5.49219 7.5 4.75 7.5C3.96875 7.5 3.5 8.00781 3.5 8.75C3.5 9.53125 3.96875 10 4.75 10ZM17.25 10C17.9922 10 18.5 9.53125 18.5 8.75C18.5 8.00781 17.9922 7.5 17.25 7.5C16.4688 7.5 15.375 8.63281 15.375 9.375C15.375 10.1172 16.4688 10 17.25 10Z" fill="white"/>
</svg>
